<?xml version="1.0" encoding="UTF-8"?> <svg xmlns="http://www.w3.org/2000/svg" width="72" height="72" viewBox="0 0 72 72" fill="none"> <rect width="72" height="72" rx="23" fill="url(#paint0_linear_199_1250)"></rect> <rect x="0.2" y="0.2" width="71.6" height="71.6" rx="22.8" stroke="white" stroke-opacity="0.05" stroke-width="0.4"></rect> <g clip-path="url(#clip0_199_1250)"> <path opacity="0.5" d="M14.5509 26.7184C14.7225 26.7184 14.8617 26.5787 14.8617 26.4063C14.8617 26.234 14.7225 26.0942 14.5509 26.0942C14.3793 26.0942 14.2402 26.234 14.2402 26.4063C14.2402 26.5787 14.3793 26.7184 14.5509 26.7184Z" fill="#F55F44"></path> <path opacity="0.5" d="M16.9401 14.9645C17.0276 15.004 17.0725 15.1032 17.0436 15.1951C17.0412 15.2024 17.0404 15.2088 17.0396 15.2161C17.0364 15.2685 17.0758 15.3145 17.1288 15.3177C17.1609 15.3201 17.1922 15.3056 17.2114 15.2798C17.2155 15.2742 17.2195 15.2677 17.2219 15.2613C17.2612 15.1734 17.36 15.1282 17.4515 15.1572C17.4587 15.1596 17.4652 15.1605 17.4724 15.1613C17.5246 15.1645 17.5703 15.125 17.5735 15.0717C17.5759 15.0395 17.5615 15.008 17.5358 14.9887C17.5302 14.9847 17.5238 14.9806 17.5173 14.9782C17.4298 14.9387 17.3849 14.8395 17.4138 14.7476C17.4162 14.7403 17.417 14.7338 17.4178 14.7266C17.4226 14.6742 17.3833 14.6274 17.3311 14.6226C17.2974 14.6193 17.2652 14.6347 17.2452 14.6621C17.2412 14.6677 17.2371 14.6742 17.2347 14.6806C17.1954 14.7685 17.0966 14.8137 17.0051 14.7847C16.9979 14.7822 16.9915 14.7814 16.9842 14.7806C16.932 14.7774 16.8863 14.8169 16.8831 14.8701C16.8807 14.9024 16.8951 14.9338 16.9208 14.9532C16.9272 14.958 16.9337 14.9613 16.9409 14.9645H16.9401Z" fill="#4D8AF0"></path> <path opacity="0.5" d="M57.944 42.1119C58.0315 42.1514 58.0765 42.2506 58.0476 42.3425C58.0451 42.3498 58.0443 42.3562 58.0435 42.3635C58.0403 42.4159 58.0797 42.4619 58.1327 42.4651C58.1648 42.4675 58.1961 42.453 58.2154 42.4272C58.2194 42.4215 58.2234 42.4151 58.2258 42.4086C58.2651 42.3207 58.3639 42.2756 58.4554 42.3046C58.4626 42.307 58.4691 42.3078 58.4763 42.3086C58.5285 42.3119 58.5742 42.2723 58.5774 42.2191C58.5799 42.1869 58.5654 42.1554 58.5397 42.1361C58.5341 42.132 58.5277 42.128 58.5212 42.1256C58.4337 42.0861 58.3888 41.9869 58.4177 41.8949C58.4201 41.8877 58.4209 41.8812 58.4217 41.874C58.4265 41.8215 58.3872 41.7748 58.335 41.7699C58.3013 41.7667 58.2691 41.782 58.2491 41.8094C58.2451 41.8151 58.241 41.8215 58.2386 41.828C58.1993 41.9159 58.1005 41.9611 58.009 41.932C58.0018 41.9296 57.9954 41.9288 57.9881 41.928C57.936 41.9248 57.8902 41.9643 57.887 42.0175C57.8846 42.0498 57.899 42.0812 57.9247 42.1006C57.9311 42.1054 57.9376 42.1086 57.9448 42.1119H57.944Z" fill="#4D8AF0"></path> <path opacity="0.5" d="M14.3966 34.6748C14.5682 34.6748 14.7074 34.5351 14.7074 34.3627C14.7074 34.1904 14.5682 34.0506 14.3966 34.0506C14.225 34.0506 14.0859 34.1904 14.0859 34.3627C14.0859 34.5351 14.225 34.6748 14.3966 34.6748Z" fill="#47E6B1"></path> <g opacity="0.5"> <path d="M49.4245 15.3193H49.2695V16.2032H49.4245V15.3193Z" fill="#47E6B1"></path> <path d="M49.7881 15.683H48.9082V15.8387H49.7881V15.683Z" fill="#47E6B1"></path> </g> <path opacity="0.5" d="M56.1076 20.1394C56.2792 20.1394 56.4183 19.9997 56.4183 19.8274C56.4183 19.655 56.2792 19.5153 56.1076 19.5153C55.936 19.5153 55.7969 19.655 55.7969 19.8274C55.7969 19.9997 55.936 20.1394 56.1076 20.1394Z" fill="#F55F44"></path> <path opacity="0.5" d="M29.4694 40.5522C29.5569 40.5917 29.6018 40.6909 29.5729 40.7828C29.5705 40.7901 29.5697 40.7966 29.5689 40.8038C29.5657 40.8562 29.6051 40.9022 29.658 40.9054C29.6902 40.9078 29.7215 40.8933 29.7407 40.8675C29.7448 40.8619 29.7488 40.8554 29.7512 40.849C29.7905 40.7611 29.8893 40.7159 29.9808 40.7449C29.988 40.7474 29.9944 40.7482 30.0017 40.749C30.0539 40.7522 30.0996 40.7127 30.1028 40.6595C30.1052 40.6272 30.0908 40.5957 30.0651 40.5764C30.0595 40.5724 30.0531 40.5683 30.0466 40.5659C29.9591 40.5264 29.9142 40.4272 29.9431 40.3353C29.9455 40.328 29.9463 40.3216 29.9471 40.3143C29.9519 40.2619 29.9126 40.2151 29.8604 40.2103C29.8266 40.207 29.7945 40.2224 29.7745 40.2498C29.7704 40.2554 29.7664 40.2619 29.764 40.2683C29.7247 40.3562 29.6259 40.4014 29.5344 40.3724C29.5272 40.3699 29.5208 40.3691 29.5135 40.3683C29.4613 40.3651 29.4156 40.4046 29.4124 40.4578C29.41 40.4901 29.4244 40.5216 29.4501 40.5409C29.4565 40.5457 29.463 40.549 29.4702 40.5522H29.4694Z" fill="#4D8AF0"></path> <g opacity="0.5"> <path d="M42.5632 27.0822H42.4082V27.966H42.5632V27.0822Z" fill="#47E6B1"></path> <path d="M42.9249 27.4467H42.0449V27.6023H42.9249V27.4467Z" fill="#47E6B1"></path> </g> <path opacity="0.5" d="M36.5568 21.6217C36.7284 21.6217 36.8675 21.482 36.8675 21.3096C36.8675 21.1372 36.7284 20.9975 36.5568 20.9975C36.3852 20.9975 36.2461 21.1372 36.2461 21.3096C36.2461 21.482 36.3852 21.6217 36.5568 21.6217Z" fill="#47E6B1"></path> <path d="M56.9776 29.2636C57.7219 31.6047 57.8864 33.5313 57.9346 34.4934C58.0205 36.216 56.9699 41.5124 52.8512 46.5398C51.455 48.2438 50.5366 49.5457 46.3152 49.8078C42.3281 50.0546 38.009 49.9708 36.4491 46.1313C35.0842 42.7708 36.0516 39.8781 36.4491 38.8232C37.5883 35.8031 39.728 33.9991 41.3867 32.5991C44.2835 30.1548 45.2244 30.6386 47.4187 28.2443C48.525 27.037 50.0778 25.3008 50.3162 22.7C50.4872 20.8355 50.6903 19.5591 50.3162 18.7616C52.4318 20.5051 55.2338 23.7782 56.9776 29.2636Z" fill="#69E9BE"></path> <path d="M56.9766 28.4466C57.7209 30.7878 57.8855 32.7144 57.9336 33.6764C58.0196 35.399 58.3263 41.4748 54.2075 46.5022C52.8122 48.2062 50.2317 51.3561 46.0103 51.6182C42.081 51.8618 37.7921 49.5368 36.2072 45.6223C34.7613 42.0506 35.9463 38.0901 37.7985 35.6587C40.9658 31.5007 45.0283 33.199 48.2125 28.5104C48.6629 27.8467 50.2992 25.3676 50.3152 21.883C50.3233 20.0895 49.8993 18.6403 49.5485 17.7185C51.6641 19.462 55.2328 22.9612 56.9766 28.4466Z" fill="#3DBD92"></path> <path d="M45.6485 15.4244C45.5955 16.5687 44.5245 17.3671 44.1335 17.6582C40.9349 20.0429 34.1025 19.4856 30.6309 19.5896C27.1842 19.6937 22.3276 20.5921 16.4707 24.2493C17.797 21.3453 20.1326 17.6122 24.2015 14.8195C31.8673 9.55746 41.4286 10.5478 44.2138 12.9429C44.6144 13.2873 45.7047 14.2252 45.6485 15.4244Z" fill="#FF5858"></path> <path d="M45.6497 15.4242C45.5951 16.604 44.463 17.4217 44.1347 17.658C41.0878 19.858 35.8097 16.3242 30.8311 16.1298C27.4519 15.9983 22.5985 17.3435 16.4727 24.2483C17.799 21.3443 20.1345 17.6112 24.2035 14.8185C31.8685 9.55727 41.4298 10.5476 44.215 12.9427C44.6156 13.2871 45.7059 14.225 45.6497 15.4242Z" fill="#DE3737"></path> <path d="M20.872 26.6628C24.2384 28.3757 22.3774 34.8933 24.2673 41.1312C25.2629 44.4167 27.7132 48.99 34.5272 53.4843C32.9407 53.4464 25.9927 53.1061 20.4545 47.5481C19.3939 46.4844 15.4173 42.4788 14.7798 36.3369C14.7357 35.9135 14.0011 28.0982 17.6059 26.5216C18.5437 26.112 19.8146 26.1249 20.872 26.6636V26.6628Z" fill="#B07EE1"></path> <path d="M20.8732 26.6628C24.0437 28.5926 21.1887 35.2675 22.9775 41.5014C23.9594 44.9231 26.6747 49.382 34.5291 53.4835C32.9427 53.4456 25.9946 53.1053 20.4565 47.5473C19.3959 46.4836 15.4193 42.478 14.7818 36.3361C14.7376 35.9127 14.003 28.0974 17.6079 26.5208C18.487 26.1362 19.823 26.0225 20.874 26.6628H20.8732Z" fill="#8747C7"></path> <path d="M17.9854 39.8031L12 29.2016H16.0826L20.3201 36.9959L24.2943 29.2016H28.0373L22.4694 39.8031H17.9846H17.9854Z" fill="white"></path> <path d="M32.5951 36.3604V39.9402H28.9453V29.2016H37.6869C41.3111 29.2016 43.1232 30.3661 43.1232 32.6943V32.8386C43.1232 35.187 41.3111 36.3604 37.6869 36.3604H32.5951ZM32.5951 33.9499H37.6243C38.7523 33.9499 39.316 33.5749 39.316 32.8241V32.7806C39.316 32.0201 38.7523 31.6403 37.6243 31.6403H32.5951V33.9499Z" fill="white"></path> <path d="M51.7231 40.1144C50.791 40.1144 49.9383 40.0466 49.1635 39.912C48.3888 39.7773 47.7368 39.6007 47.2086 39.3837C46.6803 39.1668 46.2114 38.9015 45.8027 38.5878C45.3941 38.2741 45.0753 37.9588 44.8449 37.6402C44.6145 37.3217 44.4234 36.9797 44.2717 36.6128C44.1199 36.2459 44.0204 35.9136 43.973 35.6144C43.9256 35.3152 43.9023 35.016 43.9023 34.7177V34.2983C43.9023 33.8354 43.9497 33.3967 44.0436 32.9814C44.1376 32.5669 44.3495 32.104 44.6795 31.5927C45.0095 31.0814 45.4414 30.6427 45.9753 30.2758C46.5093 29.9088 47.2712 29.6008 48.2603 29.35C49.2494 29.0992 50.404 28.9742 51.7231 28.9742H52.367C53.6548 28.9742 54.7908 29.083 55.7744 29.3C56.7587 29.5169 57.5198 29.7822 58.0593 30.0959C58.598 30.4096 59.038 30.7709 59.3784 31.1814C59.7188 31.5911 59.9388 31.958 60.0376 32.2814C60.1371 32.6048 60.1869 32.9152 60.1869 33.2144V33.3733H56.3083C56.2769 33.2572 56.2376 33.154 56.1902 33.062C56.1429 32.9701 56.0224 32.8233 55.8289 32.6209C55.6355 32.4185 55.3994 32.2499 55.1224 32.1144C54.8446 31.9798 54.4368 31.8564 53.8972 31.7451C53.3585 31.6338 52.7379 31.579 52.0362 31.579C51.1988 31.579 50.4843 31.6588 49.8925 31.8177C49.3008 31.9765 48.856 32.1959 48.5574 32.4757C48.2587 32.7556 48.0468 33.0499 47.9215 33.358C47.7963 33.6669 47.7328 34.004 47.7328 34.3709V34.5443C47.7328 34.8918 47.8035 35.2265 47.9448 35.5499C48.0861 35.8733 48.3085 36.1862 48.612 36.4902C48.9155 36.7943 49.3659 37.0378 49.9624 37.2209C50.5589 37.4039 51.2606 37.4959 52.0667 37.4959C54.4641 37.4959 55.8771 36.8741 56.3067 35.6297C56.3171 35.6104 56.3227 35.5959 56.3227 35.5862H60.2014V35.7451C60.2014 36.0636 60.1468 36.391 60.0368 36.7289C59.9268 37.0668 59.6988 37.4451 59.3535 37.8644C59.0083 38.2838 58.5627 38.6531 58.0184 38.9708C57.474 39.2886 56.7121 39.5596 55.7334 39.7813C54.7547 40.0031 53.6315 40.1144 52.3646 40.1144H51.7207H51.7231Z" fill="white"></path> </g> <path d="M20.7503 57.6234L19.8246 59.9444H19.6504L18.707 57.6234H18.8748L19.6191 59.4815C19.6376 59.525 19.6608 59.5871 19.6889 59.6686C19.717 59.75 19.7347 59.8008 19.7411 59.8202C19.7524 59.7742 19.7925 59.6637 19.8599 59.4879L20.597 57.6234H20.7503Z" fill="white"></path> <path d="M21.6436 58.2266C21.8925 58.2266 22.0924 58.3073 22.2425 58.4694C22.3927 58.6315 22.4681 58.8484 22.4681 59.1194C22.4681 59.3903 22.3927 59.5992 22.2425 59.7565C22.0924 59.9137 21.8917 59.9927 21.6404 59.9927C21.3891 59.9927 21.1843 59.9129 21.0342 59.7532C20.8841 59.5935 20.8086 59.379 20.8086 59.1097C20.8086 58.8403 20.8849 58.6315 21.0374 58.4694C21.19 58.3073 21.3923 58.2266 21.6436 58.2266ZM21.6404 58.3411C21.4356 58.3411 21.2694 58.4121 21.1426 58.5532C21.0157 58.6944 20.9523 58.8807 20.9523 59.1105C20.9523 59.3403 21.0149 59.5323 21.1394 59.671C21.2638 59.8097 21.4324 59.8798 21.6444 59.8798C21.8563 59.8798 22.0137 59.8105 22.1365 59.6726C22.2594 59.5347 22.322 59.35 22.322 59.1202C22.322 58.8903 22.2602 58.6944 22.1365 58.5532C22.0129 58.4121 21.8475 58.3411 21.6404 58.3411Z" fill="white"></path> <path d="M22.9509 57.6234V59.9444H22.8008V57.6234H22.9509Z" fill="white"></path> <path d="M23.4004 57.6234H24.3678C24.6079 57.6234 24.7845 57.6597 24.8985 57.7307C25.0848 57.8484 25.1779 58.0266 25.1779 58.2653C25.1779 58.5041 25.092 58.6661 24.9194 58.7839C24.7894 58.8734 24.6191 58.9178 24.4096 58.9178H23.5505V59.9444H23.4004V57.6234ZM23.5505 57.7476V58.7976H24.3221C24.522 58.7976 24.6697 58.7718 24.7653 58.7194C24.9403 58.6234 25.027 58.475 25.027 58.2726C25.027 58.0702 24.9539 57.9282 24.807 57.8387C24.7396 57.7976 24.6729 57.7718 24.6063 57.7621C24.5397 57.7524 24.4521 57.7476 24.343 57.7476H23.5497H23.5505Z" fill="white"></path> <path d="M26.4355 57.6234H27.403C27.6431 57.6234 27.8197 57.6597 27.9337 57.7307C28.12 57.8484 28.2131 58.0266 28.2131 58.2653C28.2131 58.5041 28.1272 58.6661 27.9546 58.7839C27.8245 58.8734 27.6543 58.9178 27.4448 58.9178H26.5857V59.9444H26.4355V57.6234ZM26.5857 57.7476V58.7976H27.3572C27.5572 58.7976 27.7049 58.7718 27.8004 58.7194C27.9754 58.6234 28.0622 58.475 28.0622 58.2726C28.0622 58.0702 27.9891 57.9282 27.8422 57.8387C27.7747 57.7976 27.7081 57.7718 27.6415 57.7621C27.5748 57.7524 27.4873 57.7476 27.3781 57.7476H26.5849H26.5857Z" fill="white"></path> <path d="M28.6319 57.6234V59.9444H28.4922V57.6234H28.6319Z" fill="white"></path> <path d="M30.5988 59.8274V59.9315C30.5594 59.9444 30.5113 59.9508 30.4559 59.9508C30.3764 59.9508 30.3226 59.9306 30.2937 59.8903C30.2648 59.85 30.2503 59.7766 30.2503 59.6702V59.5887C30.1733 59.7282 30.0801 59.8298 29.9709 59.8935C29.8618 59.9573 29.7221 59.9895 29.5518 59.9895C29.3656 59.9895 29.2203 59.9484 29.1167 59.8653C29.0131 59.7831 28.9609 59.6686 28.9609 59.5226C28.9609 59.2161 29.189 59.0452 29.6458 59.0105C29.8858 58.9927 30.0344 58.9782 30.093 58.9661C30.1508 58.954 30.1917 58.9307 30.215 58.896C30.2311 58.8718 30.2391 58.8145 30.2391 58.7234C30.2391 58.5976 30.1957 58.5016 30.1098 58.4363C30.0239 58.371 29.8979 58.3387 29.7325 58.3387C29.3993 58.3387 29.2195 58.4879 29.1914 58.7855H29.0589C29.0701 58.6049 29.136 58.4669 29.2548 58.3718C29.3736 58.2758 29.5374 58.2282 29.7469 58.2282C29.987 58.2282 30.1636 58.2879 30.2776 58.4073C30.3106 58.4419 30.3346 58.4839 30.3507 58.5331C30.3668 58.5823 30.3756 58.6218 30.3772 58.6524C30.378 58.6831 30.3788 58.7307 30.3788 58.796V59.6597C30.3788 59.6919 30.3788 59.7161 30.3804 59.7315C30.3812 59.7468 30.386 59.7637 30.3941 59.7839C30.4021 59.8032 30.4157 59.8177 30.4342 59.8266C30.4527 59.8355 30.4776 59.8395 30.5073 59.8395C30.5305 59.8395 30.5611 59.8355 30.598 59.8266L30.5988 59.8274ZM30.2423 58.9992C30.207 59.0274 30.1668 59.0484 30.1203 59.0613C30.048 59.0831 29.9196 59.1024 29.7357 59.1202C29.5518 59.1379 29.413 59.1661 29.3198 59.2048C29.1801 59.2637 29.1103 59.3653 29.1103 59.5113C29.1103 59.6242 29.152 59.7137 29.2363 59.7782C29.3206 59.8427 29.433 59.8758 29.5751 59.8758C29.7662 59.8758 29.9252 59.8202 30.052 59.7097C30.1789 59.5984 30.2423 59.4597 30.2423 59.2927V58.9992Z" fill="white"></path> <path d="M31.4574 58.2758V58.3903H31.0728V59.5218C31.0728 59.5718 31.0728 59.6057 31.0745 59.6242C31.0753 59.6428 31.0793 59.6694 31.0865 59.704C31.0937 59.7387 31.105 59.7629 31.121 59.7774C31.1371 59.7919 31.1612 59.8048 31.1925 59.8169C31.2238 59.829 31.2631 59.8347 31.3097 59.8347C31.349 59.8347 31.398 59.8307 31.4566 59.8218V59.9427C31.3892 59.9516 31.333 59.9557 31.2888 59.9557C31.219 59.9557 31.1612 59.9468 31.1146 59.9298C31.068 59.9129 31.0327 59.8936 31.0078 59.8726C30.9837 59.8516 30.9653 59.8186 30.954 59.7718C30.942 59.725 30.9364 59.6863 30.9348 59.6565C30.934 59.6258 30.9331 59.5774 30.9331 59.5097V58.392H30.6016V58.2774H30.9331V57.7524H31.0728V58.2774H31.4574V58.2758Z" fill="white"></path> <path d="M32.3943 57.6202V57.7379C32.3196 57.7315 32.2731 57.7282 32.2546 57.7282C32.1984 57.7282 32.1518 57.7355 32.1149 57.7508C32.078 57.7661 32.0491 57.7823 32.029 57.8C32.0089 57.8177 31.9945 57.846 31.9856 57.8863C31.9768 57.9266 31.9712 57.9589 31.9696 57.9839C31.9688 58.0089 31.968 58.0476 31.968 58.1V58.2758H32.3413V58.3903H31.968V59.9452H31.8283V58.3903H31.5176V58.2758H31.8283V58.0669C31.8283 57.9169 31.8556 57.8032 31.9102 57.7266C31.9648 57.6492 32.0772 57.6113 32.2474 57.6113C32.2755 57.6113 32.3245 57.6145 32.3943 57.621V57.6202Z" fill="white"></path> <path d="M33.292 58.2266C33.5409 58.2266 33.7408 58.3073 33.891 58.4694C34.0411 58.6315 34.1166 58.8484 34.1166 59.1194C34.1166 59.3903 34.0411 59.5992 33.891 59.7565C33.7408 59.9137 33.5401 59.9927 33.2888 59.9927C33.0375 59.9927 32.8328 59.9129 32.6826 59.7532C32.5325 59.5935 32.457 59.379 32.457 59.1097C32.457 58.8403 32.5333 58.6315 32.6858 58.4694C32.8384 58.3073 33.0407 58.2266 33.292 58.2266ZM33.2888 58.3411C33.0841 58.3411 32.9179 58.4121 32.791 58.5532C32.6642 58.6944 32.6007 58.8807 32.6007 59.1105C32.6007 59.3403 32.6634 59.5323 32.7878 59.671C32.9123 59.8097 33.0809 59.8798 33.2928 59.8798C33.5048 59.8798 33.6621 59.8105 33.785 59.6726C33.9078 59.5347 33.9704 59.35 33.9704 59.1202C33.9704 58.8903 33.9086 58.6944 33.785 58.5532C33.6613 58.4121 33.4959 58.3411 33.2888 58.3411Z" fill="white"></path> <path d="M35.2502 58.2621V58.396H35.198C34.9909 58.396 34.8263 58.471 34.7059 58.621C34.6408 58.7016 34.5991 58.7879 34.5822 58.8799C34.5645 58.9726 34.5557 59.0871 34.5557 59.2234V59.9436H34.416V58.2742H34.5525V58.7145C34.6175 58.554 34.705 58.4379 34.8142 58.3678C34.9234 58.2968 35.0695 58.2621 35.251 58.2621H35.2502Z" fill="white"></path> <path d="M35.5337 58.2758V58.6145C35.5826 58.4992 35.6565 58.4065 35.7553 58.3355C35.854 58.2645 35.9744 58.2299 36.1165 58.2299C36.3887 58.2299 36.5621 58.3492 36.6368 58.5887C36.758 58.35 36.9515 58.2299 37.2165 58.2299C37.3955 58.2299 37.5344 58.2791 37.634 58.3782C37.7327 58.4774 37.7825 58.6073 37.7825 58.7678V59.9444H37.6428V58.8161C37.6428 58.5057 37.4911 58.35 37.1884 58.35C37.035 58.35 36.9122 58.3944 36.8215 58.4839C36.7147 58.5863 36.6609 58.7307 36.6609 58.9178V59.9444H36.5212V58.8428C36.5212 58.7121 36.5035 58.6145 36.469 58.5492C36.4016 58.417 36.2747 58.35 36.0884 58.35C35.9182 58.35 35.785 58.4073 35.687 58.5226C35.5891 58.6379 35.5401 58.7952 35.5401 58.9952V59.9436H35.4004V58.2742H35.5329L35.5337 58.2758Z" fill="white"></path> <path d="M41.2963 59.0452C41.2731 59.3274 41.1623 59.5573 40.9648 59.7331C40.7672 59.9089 40.5192 59.9968 40.2205 59.9968C39.8785 59.9968 39.6031 59.8863 39.3943 59.6661C39.1856 59.4452 39.082 59.154 39.082 58.7911C39.082 58.4282 39.1888 58.1307 39.4016 57.9065C39.6143 57.6823 39.8937 57.5694 40.2382 57.5694C40.4895 57.5694 40.7151 57.6387 40.9158 57.7766C41.1157 57.9145 41.2305 58.0968 41.2578 58.3226H41.1109C41.0667 58.129 40.9656 57.9766 40.8074 57.8645C40.6492 57.7524 40.4565 57.6968 40.2309 57.6968C39.9331 57.6968 39.6922 57.7976 39.5084 57.9984C39.3245 58.1992 39.2322 58.4629 39.2322 58.7887C39.2322 59.1145 39.3229 59.3774 39.5043 59.5758C39.6858 59.7742 39.9258 59.8742 40.2237 59.8742C40.487 59.8742 40.6998 59.7968 40.8628 59.6427C41.0258 59.4887 41.1221 59.2895 41.1526 59.046H41.2955L41.2963 59.0452Z" fill="white"></path> <path d="M43.0991 59.3774C43.0662 59.5645 42.9827 59.7145 42.8478 59.829C42.7129 59.9427 42.5419 60 42.3348 60C42.0883 60 41.8908 59.921 41.7431 59.7621C41.5953 59.6032 41.5215 59.3919 41.5215 59.1266C41.5215 58.8613 41.597 58.646 41.7471 58.4798C41.8972 58.3137 42.0931 58.2307 42.3356 58.2307C42.5781 58.2307 42.7804 58.3137 42.9153 58.4782C43.0501 58.6435 43.1176 58.8476 43.1176 59.0911V59.1371H41.6684C41.6684 59.3476 41.7246 59.5258 41.8378 59.6718C41.951 59.8177 42.118 59.8903 42.3388 59.8903C42.5018 59.8903 42.6375 59.846 42.7459 59.7564C42.8542 59.6677 42.9257 59.5411 42.961 59.3782H43.1007L43.0991 59.3774ZM42.9731 59.0218C42.9731 58.8371 42.9177 58.6782 42.8069 58.546C42.6961 58.4137 42.5387 58.3468 42.334 58.3468C42.1293 58.3468 41.9719 58.4097 41.8627 58.5355C41.7535 58.6613 41.6885 58.8234 41.6668 59.021H42.9731V59.0218Z" fill="white"></path> <path d="M43.5525 58.2758V58.6444C43.6826 58.3686 43.9026 58.2307 44.2125 58.2307C44.41 58.2307 44.5649 58.2855 44.6749 58.3952C44.7857 58.5048 44.8411 58.6565 44.8411 58.85V59.9452H44.7014V58.9153C44.7014 58.5371 44.528 58.3484 44.1811 58.3484C43.9459 58.3484 43.7717 58.4395 43.6569 58.6226C43.5894 58.7331 43.5557 58.8863 43.5557 59.0823V59.946H43.416V58.2766H43.5525V58.2758Z" fill="white"></path> <path d="M45.8852 58.2758V58.3903H45.5006V59.5218C45.5006 59.5718 45.5006 59.6057 45.5022 59.6242C45.503 59.6428 45.507 59.6694 45.5142 59.704C45.5215 59.7387 45.5327 59.7629 45.5488 59.7774C45.5648 59.7919 45.5889 59.8048 45.6202 59.8169C45.6515 59.829 45.6909 59.8347 45.7374 59.8347C45.7768 59.8347 45.8257 59.8307 45.8844 59.8218V59.9427C45.8169 59.9516 45.7607 59.9557 45.7166 59.9557C45.6467 59.9557 45.5889 59.9468 45.5423 59.9298C45.4958 59.9129 45.4604 59.8936 45.4355 59.8726C45.4115 59.8516 45.393 59.8186 45.3818 59.7718C45.3697 59.725 45.3641 59.6863 45.3625 59.6565C45.3617 59.6258 45.3609 59.5774 45.3609 59.5097V58.392H45.0293V58.2774H45.3609V57.7524H45.5006V58.2774H45.8852V58.2758Z" fill="white"></path> <path d="M47.6769 59.8274V59.9315C47.6376 59.9444 47.5894 59.9508 47.534 59.9508C47.4545 59.9508 47.4007 59.9306 47.3718 59.8903C47.3429 59.85 47.3285 59.7766 47.3285 59.6702V59.5887C47.2514 59.7282 47.1583 59.8298 47.0491 59.8935C46.9399 59.9573 46.8002 59.9895 46.63 59.9895C46.4437 59.9895 46.2984 59.9484 46.1948 59.8653C46.0912 59.7831 46.0391 59.6686 46.0391 59.5226C46.0391 59.2161 46.2671 59.0452 46.7239 59.0105C46.964 58.9927 47.1125 58.9782 47.1711 58.9661C47.2289 58.954 47.2699 58.9307 47.2931 58.896C47.3092 58.8718 47.3172 58.8145 47.3172 58.7234C47.3172 58.5976 47.2739 58.5016 47.188 58.4363C47.1021 58.371 46.976 58.3387 46.8106 58.3387C46.4774 58.3387 46.2976 58.4879 46.2695 58.7855H46.137C46.1483 58.6049 46.2141 58.4669 46.3329 58.3718C46.4517 58.2758 46.6155 58.2282 46.8251 58.2282C47.0651 58.2282 47.2418 58.2879 47.3558 58.4073C47.3887 58.4419 47.4128 58.4839 47.4288 58.5331C47.4449 58.5823 47.4537 58.6218 47.4553 58.6524C47.4561 58.6831 47.4569 58.7307 47.4569 58.796V59.6597C47.4569 59.6919 47.4569 59.7161 47.4585 59.7315C47.4593 59.7468 47.4642 59.7637 47.4722 59.7839C47.4802 59.8032 47.4939 59.8177 47.5123 59.8266C47.5308 59.8355 47.5557 59.8395 47.5854 59.8395C47.6087 59.8395 47.6392 59.8355 47.6761 59.8266L47.6769 59.8274ZM47.3204 58.9992C47.2851 59.0274 47.245 59.0484 47.1984 59.0613C47.1261 59.0831 46.9977 59.1024 46.8138 59.1202C46.63 59.1379 46.4911 59.1661 46.3979 59.2048C46.2582 59.2637 46.1884 59.3653 46.1884 59.5113C46.1884 59.6242 46.2301 59.7137 46.3144 59.7782C46.3987 59.8427 46.5111 59.8758 46.6533 59.8758C46.8443 59.8758 47.0033 59.8202 47.1302 59.7097C47.257 59.5984 47.3204 59.4597 47.3204 59.2927V58.9992Z" fill="white"></path> <path d="M49.2797 58.2758V59.9452H49.1472V59.5927C49.0211 59.8597 48.8076 59.9935 48.5049 59.9935C48.2978 59.9935 48.1404 59.9363 48.0336 59.821C47.9268 59.7056 47.873 59.5492 47.873 59.3516V58.2758H48.0127V59.3226C48.0127 59.6944 48.1862 59.8798 48.533 59.8798C48.7329 59.8798 48.8847 59.8121 48.9866 59.6758C49.0894 59.5403 49.14 59.3758 49.14 59.1823V58.2758H49.2797Z" fill="white"></path> <path d="M50.5197 58.2621V58.396H50.4675C50.2604 58.396 50.0958 58.471 49.9754 58.621C49.9103 58.7016 49.8686 58.7879 49.8517 58.8799C49.8341 58.9726 49.8252 59.0871 49.8252 59.2234V59.9436H49.6855V58.2742H49.822V58.7145C49.8871 58.554 49.9746 58.4379 50.0838 58.3678C50.193 58.2968 50.3391 58.2621 50.5205 58.2621H50.5197Z" fill="white"></path> <path d="M52.0629 58.2758V59.9452H51.9304V59.5927C51.8044 59.8597 51.5908 59.9935 51.2881 59.9935C51.081 59.9935 50.9236 59.9363 50.8168 59.821C50.71 59.7056 50.6562 59.5492 50.6562 59.3516V58.2758H50.796V59.3226C50.796 59.6944 50.9694 59.8798 51.3162 59.8798C51.5161 59.8798 51.6679 59.8121 51.7698 59.6758C51.8726 59.5403 51.9232 59.3758 51.9232 59.1823V58.2758H52.0629Z" fill="white"></path> <path d="M53.7735 58.7613H53.6306C53.617 58.6137 53.564 58.5073 53.4716 58.4419C53.3793 58.3766 53.2484 58.3444 53.079 58.3444C52.9297 58.3444 52.8117 58.3734 52.7242 58.4323C52.6367 58.4911 52.5933 58.5702 52.5933 58.6702C52.5933 58.696 52.5965 58.7202 52.6021 58.7419C52.6077 58.7637 52.615 58.7831 52.623 58.7992C52.631 58.8153 52.6447 58.8315 52.6631 58.8484C52.6816 58.8653 52.6969 58.8774 52.7089 58.8879C52.721 58.8984 52.741 58.9089 52.7699 58.9202C52.7988 58.9323 52.8205 58.9411 52.8342 58.946C52.8478 58.9516 52.8735 58.9589 52.9112 58.9669C52.9482 58.9758 52.9747 58.9823 52.9899 58.9863C53.0052 58.9903 53.0341 58.9968 53.0774 59.0056C53.1208 59.0145 53.1489 59.0202 53.1633 59.0218C53.2492 59.0395 53.3111 59.0524 53.3488 59.0621C53.3857 59.0718 53.4419 59.0903 53.5166 59.1177C53.5913 59.1452 53.6467 59.1734 53.6828 59.2024C53.7189 59.2315 53.7518 59.2726 53.7823 59.325C53.8129 59.3774 53.8281 59.4371 53.8281 59.504C53.8281 59.6516 53.7639 59.771 53.6346 59.8613C53.5054 59.9516 53.3351 59.9968 53.1232 59.9968C52.8976 59.9968 52.7193 59.9427 52.5885 59.8355C52.4576 59.7282 52.3926 59.5774 52.3926 59.3839H52.5323C52.5323 59.5492 52.5837 59.6726 52.688 59.7556C52.7916 59.8379 52.9385 59.8798 53.1296 59.8798C53.295 59.8798 53.4291 59.846 53.5327 59.779C53.6362 59.7121 53.6884 59.6226 53.6884 59.5121C53.6884 59.4645 53.6764 59.4218 53.6515 59.3831C53.6266 59.3444 53.6009 59.3145 53.5728 59.2919C53.5447 59.2694 53.5021 59.2476 53.4451 59.2266C53.3881 59.2056 53.3448 59.1927 53.3159 59.1863C53.287 59.1798 53.2404 59.1702 53.1778 59.1573C53.1706 59.1548 53.1657 59.1532 53.1617 59.1524C53.1585 59.1516 53.1537 59.15 53.1481 59.1492C53.1425 59.1484 53.1368 59.1476 53.132 59.1476C53.116 59.1436 53.0838 59.1363 53.0357 59.1266C52.9883 59.1169 52.9522 59.1097 52.9289 59.1056C52.9056 59.1016 52.8719 59.0927 52.8277 59.0815C52.7836 59.0694 52.7499 59.0581 52.7266 59.0476C52.7033 59.0371 52.6744 59.0234 52.6391 59.0065C52.6037 58.9903 52.5772 58.9718 52.5588 58.9508C52.5403 58.9298 52.521 58.9065 52.501 58.8807C52.4809 58.8548 52.4672 58.825 52.4592 58.7927C52.4512 58.7605 52.4472 58.7242 52.4472 58.6855C52.4472 58.5444 52.505 58.4331 52.6198 58.3532C52.7346 58.2726 52.8952 58.2323 53.0999 58.2323C53.3046 58.2323 53.4708 58.2774 53.5905 58.3678C53.7101 58.4581 53.7711 58.5903 53.7735 58.7637V58.7613Z" fill="white"></path> <defs> <linearGradient id="paint0_linear_199_1250" x1="36" y1="-71.5325" x2="-186.372" y2="58.2021" gradientUnits="userSpaceOnUse"> <stop></stop> <stop offset="0.41" stop-color="#4952A6"></stop> <stop offset="0.786296" stop-color="#4C7DFC"></stop> </linearGradient> <clipPath id="clip0_199_1250"> <rect width="48.2034" height="42.4843" fill="white" transform="translate(12 11)"></rect> </clipPath> </defs> </svg> 