<?xml version="1.0" encoding="UTF-8"?> <svg xmlns="http://www.w3.org/2000/svg" width="45" height="45" viewBox="0 0 45 45" fill="none"> <path d="M0 11.7614C0 5.26574 5.26574 0 11.7614 0H33.2386C39.7343 0 45 5.26574 45 11.7614V33.2386C45 39.7343 39.7343 45 33.2386 45H11.7614C5.26574 45 0 39.7343 0 33.2386V11.7614Z" fill="url(#paint0_linear_201_5461)"></path> <path d="M10.7386 15.8523C10.7386 13.0281 13.0281 10.7386 15.8523 10.7386H29.1477C31.9719 10.7386 34.2614 13.0281 34.2614 15.8523V29.1477C34.2614 31.9719 31.9719 34.2614 29.1477 34.2614H15.8523C13.0281 34.2614 10.7386 31.9719 10.7386 29.1477V15.8523Z" fill="#02020F"></path> <path d="M30.6575 27.7375L29.9027 24.7824L27.5251 15.9095C27.4737 15.7138 27.348 15.5467 27.1754 15.4448C27.0028 15.3429 26.7974 15.3146 26.6043 15.366L23.6832 16.1315C23.6135 16.0532 23.5286 15.9903 23.4338 15.9468C23.339 15.9033 23.2363 15.8802 23.1322 15.8789H15.5843C15.3842 15.8789 15.1922 15.9595 15.0506 16.1031C14.9091 16.2467 14.8295 16.4414 14.8295 16.6444V28.8935C14.8295 29.0966 14.9091 29.2913 15.0506 29.4349C15.1922 29.5784 15.3842 29.6591 15.5843 29.6591H23.1322C23.3324 29.6591 23.5244 29.5784 23.666 29.4349C23.8075 29.2913 23.887 29.0966 23.887 28.8935V22.769L25.5476 29.0619C25.5918 29.229 25.6905 29.3759 25.8275 29.4787C25.9646 29.5816 26.132 29.6344 26.3024 29.6285C26.3676 29.636 26.4334 29.636 26.4986 29.6285L30.1442 28.6409C30.2406 28.6147 30.3309 28.5695 30.41 28.5077C30.489 28.446 30.5552 28.3689 30.6047 28.2811C30.6843 28.1117 30.703 27.9194 30.6575 27.7375ZM18.5809 28.1586H16.3165V26.6274H18.5809V28.1586ZM18.5809 25.0963H16.3165V20.5029H18.5809V25.0963ZM18.5809 18.9718H16.3165V17.4406H18.5809V18.9718ZM22.3548 28.1586H20.0904V26.6274H22.3548V28.1586ZM22.3548 25.0963H20.0904V20.5029H22.3548V25.0963ZM22.3548 18.9718H20.0904V17.4406H22.3548V18.9718ZM24.0531 17.6397L26.242 17.0425L26.6345 18.5201L24.4456 19.1172L24.0531 17.6397ZM26.008 25.0351L24.8381 20.5948L27.027 19.9976L28.1969 24.4379L26.008 25.0351ZM26.7628 27.9902L26.3703 26.5126L28.5592 25.9155L28.9517 27.393L26.7628 27.9902Z" fill="#616BCF"></path> <defs> <linearGradient id="paint0_linear_201_5461" x1="22.5" y1="-44.7078" x2="-116.483" y2="36.3763" gradientUnits="userSpaceOnUse"> <stop></stop> <stop offset="0.41" stop-color="#4952A6"></stop> <stop offset="0.786296" stop-color="#4C7DFC"></stop> </linearGradient> </defs> </svg> 