<?xml version="1.0" encoding="UTF-8"?> <svg xmlns="http://www.w3.org/2000/svg" width="45" height="45" viewBox="0 0 45 45" fill="none"> <path d="M0 11.7614C0 5.26574 5.26574 0 11.7614 0H33.2386C39.7343 0 45 5.26574 45 11.7614V33.2386C45 39.7343 39.7343 45 33.2386 45H11.7614C5.26574 45 0 39.7343 0 33.2386V11.7614Z" fill="url(#paint0_linear_201_5470)"></path> <path d="M10.7386 15.8523C10.7386 13.0281 13.0281 10.7386 15.8523 10.7386H29.1477C31.9719 10.7386 34.2614 13.0281 34.2614 15.8523V29.1477C34.2614 31.9719 31.9719 34.2614 29.1477 34.2614H15.8523C13.0281 34.2614 10.7386 31.9719 10.7386 29.1477V15.8523Z" fill="#02020F"></path> <path d="M20.0556 19.6363C19.8598 19.6363 19.672 19.7117 19.5335 19.846C19.395 19.9803 19.3172 20.1623 19.3172 20.3522C19.3172 20.5421 19.395 20.7242 19.5335 20.8584C19.672 20.9927 19.8598 21.0681 20.0556 21.0681H20.794C20.9899 21.0681 21.1777 20.9927 21.3162 20.8584C21.4546 20.7242 21.5324 20.5421 21.5324 20.3522C21.5324 20.1623 21.4546 19.9803 21.3162 19.846C21.1777 19.7117 20.9899 19.6363 20.794 19.6363H20.0556ZM23.7476 28.2271H18.5788C18.383 28.2271 18.1952 28.1517 18.0567 28.0174C17.9182 27.8832 17.8404 27.7011 17.8404 27.5112V17.4886C17.8404 17.2987 17.9182 17.1167 18.0567 16.9824C18.1952 16.8481 18.383 16.7727 18.5788 16.7727H22.2708V18.9204C22.2708 19.49 22.5042 20.0363 22.9196 20.4391C23.3351 20.8418 23.8985 21.0681 24.486 21.0681H26.7012V22.4999C26.7012 22.6898 26.779 22.8719 26.9175 23.0061C27.056 23.1404 27.2438 23.2158 27.4396 23.2158C27.6355 23.2158 27.8233 23.1404 27.9617 23.0061C28.1002 22.8719 28.178 22.6898 28.178 22.4999V20.3522C28.178 20.3522 28.178 20.3522 28.178 20.3093C28.1703 20.2435 28.1555 20.1787 28.1337 20.116V20.0515C28.0982 19.9779 28.0508 19.9103 27.9934 19.8511L23.563 15.5557C23.502 15.5 23.4322 15.4541 23.3563 15.4197C23.3318 15.4155 23.3069 15.4155 23.2824 15.4197C23.2106 15.3824 23.1335 15.3559 23.0535 15.3409H18.5788C17.9913 15.3409 17.4279 15.5672 17.0125 15.97C16.597 16.3727 16.3636 16.919 16.3636 17.4886V27.5112C16.3636 28.0808 16.597 28.6271 17.0125 29.0299C17.4279 29.4326 17.9913 29.6589 18.5788 29.6589H23.7476C23.9435 29.6589 24.1313 29.5835 24.2697 29.4492C24.4082 29.315 24.486 29.1329 24.486 28.943C24.486 28.7532 24.4082 28.5711 24.2697 28.4368C24.1313 28.3025 23.9435 28.2271 23.7476 28.2271ZM23.7476 17.7821L25.6601 19.6363H24.486C24.2902 19.6363 24.1024 19.5609 23.9639 19.4266C23.8254 19.2924 23.7476 19.1103 23.7476 18.9204V17.7821ZM24.486 22.4999H20.0556C19.8598 22.4999 19.672 22.5753 19.5335 22.7096C19.395 22.8439 19.3172 23.0259 19.3172 23.2158C19.3172 23.4057 19.395 23.5878 19.5335 23.722C19.672 23.8563 19.8598 23.9317 20.0556 23.9317H24.486C24.6819 23.9317 24.8697 23.8563 25.0081 23.722C25.1466 23.5878 25.2244 23.4057 25.2244 23.2158C25.2244 23.0259 25.1466 22.8439 25.0081 22.7096C24.8697 22.5753 24.6819 22.4999 24.486 22.4999ZM29.4407 27.0029C29.372 26.9358 29.2904 26.8826 29.2004 26.8462C29.1104 26.8099 29.0139 26.7912 28.9164 26.7912C28.8189 26.7912 28.7224 26.8099 28.6324 26.8462C28.5425 26.8826 28.4608 26.9358 28.3921 27.0029L28.178 27.2177V25.3635C28.178 25.1737 28.1002 24.9916 27.9617 24.8573C27.8233 24.723 27.6355 24.6476 27.4396 24.6476C27.2438 24.6476 27.056 24.723 26.9175 24.8573C26.779 24.9916 26.7012 25.1737 26.7012 25.3635V27.2177L26.4871 27.0029C26.348 26.8681 26.1595 26.7924 25.9628 26.7924C25.7662 26.7924 25.5776 26.8681 25.4386 27.0029C25.2995 27.1377 25.2214 27.3206 25.2214 27.5112C25.2214 27.7019 25.2995 27.8847 25.4386 28.0195L26.9153 29.4513C26.9856 29.5165 27.0684 29.5676 27.159 29.6017C27.2474 29.6395 27.343 29.6591 27.4396 29.6591C27.5362 29.6591 27.6318 29.6395 27.7202 29.6017C27.8108 29.5676 27.8937 29.5165 27.9639 29.4513L29.4407 28.0195C29.5099 27.953 29.5648 27.8738 29.6023 27.7865C29.6398 27.6993 29.6591 27.6057 29.6591 27.5112C29.6591 27.4167 29.6398 27.3231 29.6023 27.2359C29.5648 27.1487 29.5099 27.0695 29.4407 27.0029ZM23.0092 26.7953C23.2051 26.7953 23.3929 26.7199 23.5313 26.5856C23.6698 26.4514 23.7476 26.2693 23.7476 26.0794C23.7476 25.8896 23.6698 25.7075 23.5313 25.5732C23.3929 25.4389 23.2051 25.3635 23.0092 25.3635H20.0556C19.8598 25.3635 19.672 25.4389 19.5335 25.5732C19.395 25.7075 19.3172 25.8896 19.3172 26.0794C19.3172 26.2693 19.395 26.4514 19.5335 26.5856C19.672 26.7199 19.8598 26.7953 20.0556 26.7953H23.0092Z" fill="#616BCF"></path> <defs> <linearGradient id="paint0_linear_201_5470" x1="22.5" y1="-44.7078" x2="-116.483" y2="36.3763" gradientUnits="userSpaceOnUse"> <stop></stop> <stop offset="0.41" stop-color="#4952A6"></stop> <stop offset="0.786296" stop-color="#4C7DFC"></stop> </linearGradient> </defs> </svg> 