<?xml version="1.0" encoding="UTF-8"?> <svg xmlns="http://www.w3.org/2000/svg" width="45" height="45" viewBox="0 0 45 45" fill="none"> <path d="M0 11.7614C0 5.26574 5.26574 0 11.7614 0H33.2386C39.7343 0 45 5.26574 45 11.7614V33.2386C45 39.7343 39.7343 45 33.2386 45H11.7614C5.26574 45 0 39.7343 0 33.2386V11.7614Z" fill="url(#paint0_linear_201_5491)"></path> <path d="M10.7386 15.8523C10.7386 13.0281 13.0281 10.7386 15.8523 10.7386H29.1477C31.9719 10.7386 34.2614 13.0281 34.2614 15.8523V29.1477C34.2614 31.9719 31.9719 34.2614 29.1477 34.2614H15.8523C13.0281 34.2614 10.7386 31.9719 10.7386 29.1477V15.8523Z" fill="#02020F"></path> <path d="M19.3511 21.0682H20.0508C20.2364 21.0682 20.4144 20.9928 20.5456 20.8585C20.6769 20.7242 20.7506 20.5421 20.7506 20.3523C20.7506 20.1624 20.6769 19.9803 20.5456 19.846C20.4144 19.7118 20.2364 19.6364 20.0508 19.6364H19.3511C19.1655 19.6364 18.9875 19.7118 18.8563 19.846C18.725 19.9803 18.6513 20.1624 18.6513 20.3523C18.6513 20.5421 18.725 20.7242 18.8563 20.8585C18.9875 20.9928 19.1655 21.0682 19.3511 21.0682ZM22.1501 25.3636H19.3511C19.1655 25.3636 18.9875 25.4391 18.8563 25.5733C18.725 25.7076 18.6513 25.8897 18.6513 26.0795C18.6513 26.2694 18.725 26.4515 18.8563 26.5858C18.9875 26.72 19.1655 26.7955 19.3511 26.7955H22.1501C22.3357 26.7955 22.5137 26.72 22.6449 26.5858C22.7762 26.4515 22.8499 26.2694 22.8499 26.0795C22.8499 25.8897 22.7762 25.7076 22.6449 25.5733C22.5137 25.4391 22.3357 25.3636 22.1501 25.3636ZM22.1501 22.5H19.3511C19.1655 22.5 18.9875 22.5754 18.8563 22.7097C18.725 22.8439 18.6513 23.026 18.6513 23.2159C18.6513 23.4058 18.725 23.5879 18.8563 23.7221C18.9875 23.8564 19.1655 23.9318 19.3511 23.9318H22.1501C22.3357 23.9318 22.5137 23.8564 22.6449 23.7221C22.7762 23.5879 22.8499 23.4058 22.8499 23.2159C22.8499 23.026 22.7762 22.8439 22.6449 22.7097C22.5137 22.5754 22.3357 22.5 22.1501 22.5ZM26.9925 20.6243C27.0461 20.4939 27.0607 20.3503 27.0345 20.2114C27.0084 20.0725 26.9426 19.9447 26.8455 19.844L22.6469 15.5485C22.5891 15.4928 22.523 15.4469 22.451 15.4125C22.4301 15.4095 22.4089 15.4095 22.388 15.4125L22.1921 15.3409H17.9516C17.3948 15.3409 16.8608 15.5672 16.4671 15.97C16.0734 16.3727 15.8523 16.919 15.8523 17.4886V27.5114C15.8523 28.081 16.0734 28.6273 16.4671 29.03C16.8608 29.4328 17.3948 29.6591 17.9516 29.6591H22.1501C22.3357 29.6591 22.5137 29.5837 22.6449 29.4494C22.7762 29.3151 22.8499 29.1331 22.8499 28.9432C22.8499 28.7533 22.7762 28.5712 22.6449 28.437C22.5137 28.3027 22.3357 28.2273 22.1501 28.2273H17.9516C17.766 28.2273 17.588 28.1518 17.4567 28.0176C17.3255 27.8833 17.2518 27.7012 17.2518 27.5114V17.4886C17.2518 17.2988 17.3255 17.1167 17.4567 16.9824C17.588 16.8482 17.766 16.7727 17.9516 16.7727H21.4504V18.9205C21.4504 19.4901 21.6715 20.0364 22.0652 20.4391C22.4589 20.8419 22.9929 21.0682 23.5496 21.0682H26.3487C26.4868 21.0675 26.6217 21.025 26.7363 20.946C26.8508 20.867 26.94 20.7551 26.9925 20.6243ZM23.5496 19.6364C23.3641 19.6364 23.1861 19.5609 23.0548 19.4267C22.9236 19.2924 22.8499 19.1103 22.8499 18.9205V17.7822L24.6623 19.6364H23.5496ZM28.448 22.5H24.9492C24.7636 22.5 24.5856 22.5754 24.4544 22.7097C24.3231 22.8439 24.2494 23.026 24.2494 23.2159V28.9432C24.2497 29.0727 24.2844 29.1997 24.3497 29.3106C24.415 29.4216 24.5085 29.5123 24.6203 29.5732C24.7297 29.6307 24.852 29.6576 24.9748 29.6513C25.0977 29.6451 25.2168 29.6057 25.32 29.5374L26.6986 28.6067L28.0981 29.5374C28.2026 29.5992 28.321 29.6324 28.4418 29.6335C28.5625 29.6347 28.6815 29.6039 28.7872 29.5441C28.8929 29.4842 28.9816 29.3975 29.0448 29.2922C29.108 29.1869 29.1434 29.0667 29.1477 28.9432V23.2159C29.1477 23.026 29.074 22.8439 28.9428 22.7097C28.8115 22.5754 28.6336 22.5 28.448 22.5ZM27.7482 27.5973L27.0904 27.1462C26.9747 27.0662 26.8382 27.0235 26.6986 27.0235C26.5589 27.0235 26.4224 27.0662 26.3067 27.1462L25.6489 27.5973V23.9318H27.7482V27.5973Z" fill="#616BCF"></path> <defs> <linearGradient id="paint0_linear_201_5491" x1="22.5" y1="-44.7078" x2="-116.483" y2="36.3763" gradientUnits="userSpaceOnUse"> <stop></stop> <stop offset="0.41" stop-color="#4952A6"></stop> <stop offset="0.786296" stop-color="#4C7DFC"></stop> </linearGradient> </defs> </svg> 