<?xml version="1.0" encoding="UTF-8"?> <svg xmlns="http://www.w3.org/2000/svg" width="45" height="45" viewBox="0 0 45 45" fill="none"> <path d="M0 11.7614C0 5.26574 5.26574 0 11.7614 0H33.2386C39.7343 0 45 5.26574 45 11.7614V33.2386C45 39.7343 39.7343 45 33.2386 45H11.7614C5.26574 45 0 39.7343 0 33.2386V11.7614Z" fill="url(#paint0_linear_201_5480)"></path> <path d="M10.7386 15.8523C10.7386 13.0281 13.0281 10.7386 15.8523 10.7386H29.1477C31.9719 10.7386 34.2614 13.0281 34.2614 15.8523V29.1477C34.2614 31.9719 31.9719 34.2614 29.1477 34.2614H15.8523C13.0281 34.2614 10.7386 31.9719 10.7386 29.1477V15.8523Z" fill="#02020F"></path> <path d="M22.3903 28.2235H18.0316C17.839 28.2235 17.6542 28.1481 17.518 28.0139C17.3817 27.8797 17.3052 27.6977 17.3052 27.5078V17.488C17.3052 17.2982 17.3817 17.1162 17.518 16.9819C17.6542 16.8477 17.839 16.7723 18.0316 16.7723H21.6639V18.9194C21.6639 19.4889 21.8935 20.035 22.3022 20.4377C22.7109 20.8403 23.2653 21.0665 23.8433 21.0665H26.0226V24.645C26.0226 24.8348 26.0991 25.0169 26.2354 25.1511C26.3716 25.2853 26.5564 25.3607 26.7491 25.3607C26.9417 25.3607 27.1265 25.2853 27.2627 25.1511C27.399 25.0169 27.4755 24.8348 27.4755 24.645V20.3508C27.4755 20.3508 27.4755 20.3508 27.4755 20.3079C27.468 20.2421 27.4533 20.1774 27.4319 20.1146V20.0502C27.397 19.9766 27.3504 19.909 27.2939 19.8498L22.9352 15.5556C22.8751 15.4999 22.8065 15.454 22.7318 15.4196C22.7077 15.4155 22.6832 15.4155 22.6591 15.4196C22.5885 15.3824 22.5126 15.3559 22.4339 15.3409H18.0316C17.4536 15.3409 16.8993 15.5671 16.4906 15.9698C16.0819 16.3724 15.8523 16.9186 15.8523 17.488V27.5078C15.8523 28.0773 16.0819 28.6234 16.4906 29.0261C16.8993 29.4287 17.4536 29.6549 18.0316 29.6549H22.3903C22.583 29.6549 22.7678 29.5795 22.904 29.4453C23.0403 29.3111 23.1168 29.1291 23.1168 28.9392C23.1168 28.7494 23.0403 28.5674 22.904 28.4332C22.7678 28.2989 22.583 28.2235 22.3903 28.2235ZM23.1168 17.7815L24.9983 19.6351H23.8433C23.6506 19.6351 23.4658 19.5597 23.3296 19.4255C23.1933 19.2913 23.1168 19.1092 23.1168 18.9194V17.7815ZM19.4845 23.9293H23.8433C24.0359 23.9293 24.2207 23.8539 24.3569 23.7197C24.4932 23.5855 24.5697 23.4034 24.5697 23.2136C24.5697 23.0238 24.4932 22.8418 24.3569 22.7075C24.2207 22.5733 24.0359 22.4979 23.8433 22.4979H19.4845C19.2919 22.4979 19.1071 22.5733 18.9709 22.7075C18.8346 22.8418 18.7581 23.0238 18.7581 23.2136C18.7581 23.4034 18.8346 23.5855 18.9709 23.7197C19.1071 23.8539 19.2919 23.9293 19.4845 23.9293ZM22.3903 25.3607H19.4845C19.2919 25.3607 19.1071 25.4361 18.9709 25.5704C18.8346 25.7046 18.7581 25.8866 18.7581 26.0764C18.7581 26.2662 18.8346 26.4483 18.9709 26.5825C19.1071 26.7167 19.2919 26.7921 19.4845 26.7921H22.3903C22.583 26.7921 22.7678 26.7167 22.904 26.5825C23.0403 26.4483 23.1168 26.2662 23.1168 26.0764C23.1168 25.8866 23.0403 25.7046 22.904 25.5704C22.7678 25.4361 22.583 25.3607 22.3903 25.3607ZM19.4845 21.0665H20.211C20.4037 21.0665 20.5884 20.9911 20.7247 20.8569C20.8609 20.7227 20.9374 20.5406 20.9374 20.3508C20.9374 20.161 20.8609 19.979 20.7247 19.8447C20.5884 19.7105 20.4037 19.6351 20.211 19.6351H19.4845C19.2919 19.6351 19.1071 19.7105 18.9709 19.8447C18.8346 19.979 18.7581 20.161 18.7581 20.3508C18.7581 20.5406 18.8346 20.7227 18.9709 20.8569C19.1071 20.9911 19.2919 21.0665 19.4845 21.0665ZM29.4442 25.5683C29.3767 25.5012 29.2963 25.448 29.2078 25.4116C29.1193 25.3753 29.0243 25.3566 28.9284 25.3566C28.8325 25.3566 28.7376 25.3753 28.649 25.4116C28.5605 25.448 28.4802 25.5012 28.4126 25.5683L26.0226 27.9301L25.0855 26.9997C25.0178 26.933 24.9373 26.88 24.8488 26.8439C24.7603 26.8078 24.6655 26.7892 24.5697 26.7892C24.4739 26.7892 24.3791 26.8078 24.2906 26.8439C24.2021 26.88 24.1217 26.933 24.0539 26.9997C23.9862 27.0664 23.9325 27.1456 23.8958 27.2328C23.8591 27.32 23.8403 27.4135 23.8403 27.5078C23.8403 27.6022 23.8591 27.6957 23.8958 27.7828C23.9325 27.87 23.9862 27.9493 24.0539 28.016L25.5068 29.4474C25.5744 29.5145 25.6547 29.5677 25.7432 29.604C25.8318 29.6404 25.9267 29.6591 26.0226 29.6591C26.1185 29.6591 26.2135 29.6404 26.302 29.604C26.3905 29.5677 26.4709 29.5145 26.5384 29.4474L29.4442 26.5846C29.5123 26.518 29.5663 26.4389 29.6032 26.3517C29.6401 26.2645 29.6591 26.1709 29.6591 26.0764C29.6591 25.982 29.6401 25.8884 29.6032 25.8012C29.5663 25.714 29.5123 25.6348 29.4442 25.5683Z" fill="#616BCF"></path> <defs> <linearGradient id="paint0_linear_201_5480" x1="22.5" y1="-44.7078" x2="-116.483" y2="36.3763" gradientUnits="userSpaceOnUse"> <stop></stop> <stop offset="0.41" stop-color="#4952A6"></stop> <stop offset="0.786296" stop-color="#4C7DFC"></stop> </linearGradient> </defs> </svg> 