<?xml version="1.0" encoding="UTF-8"?> <svg xmlns="http://www.w3.org/2000/svg" width="45" height="45" viewBox="0 0 45 45" fill="none"> <path d="M0 11.7614C0 5.26574 5.26574 0 11.7614 0H33.2386C39.7343 0 45 5.26574 45 11.7614V33.2386C45 39.7343 39.7343 45 33.2386 45H11.7614C5.26574 45 0 39.7343 0 33.2386V11.7614Z" fill="url(#paint0_linear_201_5504)"></path> <path d="M10.7386 15.8523C10.7386 13.0281 13.0281 10.7386 15.8523 10.7386H29.1477C31.9719 10.7386 34.2614 13.0281 34.2614 15.8523V29.1477C34.2614 31.9719 31.9719 34.2614 29.1477 34.2614H15.8523C13.0281 34.2614 10.7386 31.9719 10.7386 29.1477V15.8523Z" fill="#02020F"></path> <path d="M25.156 18.4121L21.3617 22.2064L19.844 20.6887C19.7798 20.6137 19.7008 20.5529 19.612 20.5099C19.5232 20.4669 19.4264 20.4428 19.3278 20.439C19.2292 20.4352 19.1309 20.4518 19.0391 20.4878C18.9472 20.5238 18.8638 20.5784 18.794 20.6481C18.7242 20.7179 18.6696 20.8013 18.6336 20.8932C18.5976 20.9851 18.581 21.0834 18.5848 21.182C18.5886 21.2806 18.6128 21.3773 18.6558 21.4661C18.6987 21.5549 18.7596 21.6339 18.8345 21.6981L20.8606 23.7241C20.9939 23.8563 21.1739 23.9309 21.3617 23.9317C21.4559 23.9322 21.5493 23.9142 21.6365 23.8786C21.7238 23.8429 21.8031 23.7904 21.87 23.7241L26.1655 19.4287C26.2326 19.3621 26.2858 19.283 26.3222 19.1957C26.3585 19.1085 26.3772 19.0149 26.3772 18.9204C26.3772 18.8259 26.3585 18.7323 26.3222 18.6451C26.2858 18.5578 26.2326 18.4787 26.1655 18.4121C26.0313 18.2788 25.8499 18.2039 25.6607 18.2039C25.4716 18.2039 25.2902 18.2788 25.156 18.4121ZM27.5114 15.3409H17.4886C16.919 15.3409 16.3727 15.5672 15.97 15.97C15.5672 16.3727 15.3409 16.919 15.3409 17.4886V24.6476C15.3409 25.2172 15.5672 25.7635 15.97 26.1663C16.3727 26.569 16.919 26.7953 17.4886 26.7953H25.786L28.4349 29.4513C28.5018 29.5176 28.5811 29.5701 28.6683 29.6058C28.7556 29.6414 28.849 29.6594 28.9432 29.6589C29.0371 29.6613 29.1303 29.6417 29.2152 29.6016C29.346 29.5479 29.4579 29.4567 29.5369 29.3395C29.6159 29.2223 29.6584 29.0843 29.6591 28.943V17.4886C29.6591 16.919 29.4328 16.3727 29.03 15.97C28.6273 15.5672 28.081 15.3409 27.5114 15.3409ZM28.2273 27.2177L26.5878 25.5711C26.5209 25.5048 26.4416 25.4523 26.3544 25.4166C26.2672 25.381 26.1738 25.363 26.0795 25.3635H17.4886C17.2988 25.3635 17.1167 25.2881 16.9824 25.1538C16.8482 25.0196 16.7727 24.8375 16.7727 24.6476V17.4886C16.7727 17.2987 16.8482 17.1166 16.9824 16.9824C17.1167 16.8481 17.2988 16.7727 17.4886 16.7727H27.5114C27.7012 16.7727 27.8833 16.8481 28.0176 16.9824C28.1518 17.1166 28.2273 17.2987 28.2273 17.4886V27.2177Z" fill="#616BCF"></path> <defs> <linearGradient id="paint0_linear_201_5504" x1="22.5" y1="-44.7078" x2="-116.483" y2="36.3763" gradientUnits="userSpaceOnUse"> <stop></stop> <stop offset="0.41" stop-color="#4952A6"></stop> <stop offset="0.786296" stop-color="#4C7DFC"></stop> </linearGradient> </defs> </svg> 