<?xml version="1.0" encoding="UTF-8"?> <!--?xml version="1.0" encoding="UTF-8"?--> <svg xmlns="http://www.w3.org/2000/svg" width="117" height="37" viewBox="0 0 117 37" fill="none"> <path d="M10.408 15.4952H12.4032L16.188 29.2524H14.5425L13.4523 25.3158H9.21494L8.2276 29.2524H6.58203L10.408 15.4952ZM11.3953 16.605H11.3542L9.56463 23.9338H13.1232L11.3953 16.605Z" fill="#D4C17F"></path> <path d="M18.8629 24.897C18.8629 26.9281 19.4183 28.2054 21.4135 28.2054C22.9357 28.2054 23.9847 27.5354 23.9847 25.9021C23.9847 24.1222 23.162 23.6825 21.7838 23.159L19.7885 22.4052C18.5544 21.9236 17.6082 20.9813 17.6082 18.7827C17.6082 16.584 19.0892 15.223 21.2901 15.223C23.6351 15.223 25.0338 16.584 25.1366 19.0968H23.6556C23.6556 17.5891 22.9151 16.584 21.4135 16.584C19.7474 16.584 19.1715 17.6101 19.1715 18.7617C19.1715 20.0181 19.5006 20.5835 20.3645 20.8976L22.5243 21.7142C24.6635 22.5308 25.548 23.8291 25.548 25.6508C25.548 28.2473 23.9642 29.5456 21.3724 29.5456C18.7806 29.5456 17.3613 27.8285 17.3613 24.8761L18.8629 24.897Z" fill="#D4C17F"></path> <path d="M31.3686 29.2524H29.867V16.8772H26.3496V15.4952H34.8449V16.8772H31.348L31.3686 29.2524Z" fill="#D4C17F"></path> <path d="M38.0328 29.2524H36.5312V15.4952H40.6452C43.0107 15.4952 44.574 16.6678 44.574 19.2434C44.574 20.8138 43.6895 22.1958 42.1262 22.4052V22.4471C43.5455 22.6146 44.43 23.871 44.43 25.5671C44.43 28.4358 44.6768 28.5405 44.8825 28.9593V29.2733H43.3604C43.0518 28.373 42.9284 27.5773 42.9284 26.0905C42.9284 24.2688 42.1468 23.2218 40.46 23.2218H38.0328V29.2524ZM38.0328 21.8189H40.6452C41.6942 21.8189 43.0107 21.3164 43.0107 19.3062C43.0107 17.296 41.8999 16.8772 40.5835 16.8772H38.0328V21.8189Z" fill="#D4C17F"></path> <path d="M50.3142 15.4952H52.3095L56.0943 29.2524H54.4487L53.3791 25.3158H49.1212L48.1339 29.2733H46.4883L50.3142 15.4952ZM51.281 16.605H51.2399L49.4503 23.9338H53.0089L51.281 16.605Z" fill="#D4C17F"></path> <path d="M64.65 27.8913H70.1627V29.2733H63.1484V15.4952H64.65V27.8913Z" fill="#D4C17F"></path> <path d="M73.4957 29.2524H71.9941V15.4952H73.4957V29.2524Z" fill="#D4C17F"></path> <path d="M78.6783 15.4952L82.5042 26.7606C82.6688 27.2422 82.8127 27.6401 82.9773 28.2683H83.039C83.0184 27.7657 82.9773 27.2422 82.9773 26.7397V15.4952H84.4789V29.2524H82.0105L78.2463 18.2383C78.02 17.5682 77.8349 16.8772 77.732 16.1862H77.6909C77.7115 16.8772 77.732 17.5891 77.732 18.2801V29.2524H76.2305V15.4952H78.6783Z" fill="#D4C17F"></path> <path d="M88.7379 15.4952V25.3995C88.7379 26.4675 88.8819 28.2054 91.2885 28.2054C93.6952 28.2054 93.8392 26.4675 93.8392 25.3995V15.4952H95.3408V25.944C95.3408 28.3939 93.7363 29.5665 91.2885 29.5665C88.8408 29.5665 87.2363 28.3939 87.2363 25.944V15.4952H88.7379Z" fill="#D4C17F"></path> <path d="M99.0219 15.4952L101.86 20.8557L104.679 15.4952H106.345L102.745 22.1958L106.447 29.2733H104.74L101.86 23.515L98.9396 29.2733H97.2734L100.997 22.1958L97.3557 15.4952H99.0219Z" fill="#D4C17F"></path> <path d="M110.335 7.22411H63.8481C63.4367 7.22411 63.087 7.55914 63.087 7.99887C63.087 8.4386 63.4161 8.77363 63.8481 8.77363H110.335C113.174 8.77363 115.498 11.1188 115.498 14.0294V30.2366C115.498 33.1262 113.195 35.4924 110.335 35.4924H6.66456C3.82595 35.4924 1.50158 33.1471 1.52215 30.2366V14.0085C1.52215 11.1188 3.82595 8.77363 6.66456 8.75269H53.193C53.6044 8.75269 53.9541 8.41766 53.9541 7.97793C53.9541 7.5382 53.625 7.20317 53.193 7.20317H6.66456C2.9826 7.22411 0 10.2603 0 14.0085V30.2156C0 33.9638 2.9826 37 6.66456 37H110.335C114.017 37 117 33.9638 117 30.2156V14.0085C117 10.2603 114.017 7.22411 110.335 7.22411Z" fill="#D4C17F"></path> <path d="M64.3614 4.75325L60.3915 4.06225L58.8899 0.816638L58.4991 0L56.6067 4.04131L52.6367 4.73232L55.4753 7.87323L54.8377 12.3124L58.4991 10.2603L62.1605 12.3124L61.5022 7.87323L63.806 5.31862L64.3614 4.75325ZM61.0086 7.68478L61.5434 11.3911L58.4785 9.69496L55.4342 11.3911L55.969 7.68478L53.6035 5.06735L56.9152 4.48104L58.4785 1.13073L60.0418 4.48104L63.3535 5.06735L61.0086 7.68478Z" fill="#D4C17F"></path> <path d="M56.2587 8.35484L57.3694 9.88342L57.8425 9.6112L56.0118 5.75835L58.4185 9.29711L58.5008 9.25523L59.3441 9.7159L57.4929 5.56989L60.64 10.4488L61.072 10.6791L61.0103 10.2184L58.9739 5.38144L60.7223 8.20826L60.6194 7.55914L61.1542 6.97283L60.4549 5.17204L61.3599 6.7425L62.6558 5.29768L59.8172 4.81607L58.5008 1.98925L57.1843 4.81607L54.3457 5.29768L56.3821 7.55914L56.2587 8.35484Z" fill="#D4C17F"></path> <path d="M56.154 9.17148L55.9277 10.6791L56.6888 10.2603L56.154 9.17148Z" fill="#D4C17F"></path> <path d="M110.808 17.2332C110.808 18.2173 110.026 19.034 109.039 19.034C108.051 19.034 107.27 18.2383 107.27 17.2332C107.27 16.2281 108.051 15.4324 109.039 15.4324H109.059C110.005 15.4533 110.808 16.249 110.808 17.2332ZM107.537 17.2332C107.537 18.0707 108.216 18.7617 109.039 18.7617C109.861 18.7617 110.54 18.0707 110.54 17.2332C110.54 16.3956 109.861 15.7046 109.039 15.7046C108.216 15.7046 107.537 16.3956 107.537 17.2332ZM108.38 16.2281H109.244C109.573 16.2281 109.944 16.3328 109.944 16.7725C109.944 17.2122 109.635 17.3169 109.326 17.3169L109.923 18.2383H109.635L109.08 17.3169H108.648V18.2383H108.401L108.38 16.2281ZM108.627 17.1285H109.203C109.388 17.1285 109.676 17.0866 109.676 16.7516C109.676 16.4584 109.409 16.4165 109.162 16.4165H108.607V17.1285H108.627Z" fill="#D4C17F"></path> </svg> 