<?xml version="1.0" encoding="UTF-8"?> <svg xmlns="http://www.w3.org/2000/svg" width="116" height="35" viewBox="0 0 116 35" fill="none"> <path d="M7.07268 15.3862L0 15.4104V29.8254L2.37948 29.8012L2.36753 24.1455H6.70799C8.06513 24.1455 9.15921 23.7515 9.95437 22.9756C10.7615 22.1936 11.174 21.1146 11.174 19.7689C11.174 18.4292 10.8093 17.3563 10.0919 16.5743C9.36249 15.7862 8.34612 15.3862 7.07268 15.3862ZM8.77658 19.7992C8.77658 21.3268 8.05317 22.0057 6.42102 22.0057H2.37948V17.526H6.66614C8.12492 17.526 8.77658 18.2292 8.77658 19.7992Z" fill="#D4C17F"></path> <path d="M16.7516 19.6901C15.1135 19.6901 13.8221 20.2114 12.9134 21.2358C12.0883 22.1451 11.6758 23.3817 11.6758 24.9093C11.6758 26.4187 12.1003 27.6674 12.9492 28.6313C13.4215 29.1465 13.9835 29.5284 14.6113 29.7709C15.2211 30.0012 15.9445 30.1225 16.7516 30.1225C18.4675 30.1225 19.8007 29.6133 20.7214 28.607C21.5405 27.7099 21.959 26.4611 21.959 24.9093C21.959 23.3393 21.5405 22.0905 20.7094 21.1934C19.8067 20.1992 18.4734 19.6901 16.7516 19.6901ZM13.8759 24.9093C13.8759 24.3819 13.9476 23.9151 14.0792 23.5151C14.2107 23.1271 14.396 22.7998 14.6352 22.5331C15.1434 21.9814 15.8369 21.7086 16.7516 21.7086C18.8023 21.7086 19.7588 22.727 19.7588 24.9093C19.7588 25.4427 19.6991 25.9156 19.5795 26.3096C19.4659 26.6854 19.2985 26.9885 19.0594 27.2552C18.5691 27.8311 17.8158 28.1099 16.7516 28.1099C15.807 28.1099 15.1135 27.8432 14.6232 27.2795C14.121 26.6975 13.8759 25.9216 13.8759 24.9093Z" fill="#D4C17F"></path> <path d="M31.0533 24.4365C30.563 24.1819 29.732 23.9879 28.5243 23.8545C26.9878 23.6606 26.4079 23.5272 26.1986 23.4545C25.6964 23.2605 25.6307 23.018 25.6307 22.8058C25.6307 22.4179 25.7622 22.1633 26.0492 21.9875C26.3003 21.8359 26.8085 21.6541 27.8188 21.6541C29.738 21.6541 29.9831 22.4603 29.9831 23.1695V23.509H32.2131V23.1695C32.2131 21.5935 31.4538 19.7143 27.8547 19.7143C27.1851 19.7143 26.5872 19.7689 26.0671 19.878C25.529 19.9871 25.0687 20.1508 24.6681 20.3811C23.861 20.9206 23.4485 21.745 23.4485 22.8301C23.4485 23.9515 23.9328 24.7759 24.8535 25.2184C25.1046 25.3336 25.6546 25.5215 27.5737 25.8064C29.3314 26.0671 29.6543 26.1459 29.7081 26.1641C30.1266 26.3338 30.3059 26.5884 30.3059 27.0188C30.3059 27.334 30.3059 28.1706 28.046 28.1706C26.7367 28.1706 26.1687 27.916 25.8937 27.6795C25.6486 27.4916 25.5171 27.1946 25.4752 26.8006H23.1914C23.2512 27.3037 23.3588 27.7462 23.5202 28.1039C23.7115 28.5403 23.9806 28.898 24.3034 29.1586C24.7159 29.4981 25.2421 29.7466 25.8758 29.8921C26.4677 30.0255 27.1971 30.0982 28.046 30.0982C31.7707 30.0982 32.5539 28.3403 32.5539 26.8673C32.5539 25.7398 32.0278 24.8972 31.0533 24.4365Z" fill="#D4C17F"></path> <path d="M82.0141 24.4365C81.5298 24.1819 80.6988 23.9879 79.4851 23.8545C77.9486 23.6606 77.3687 23.5272 77.1595 23.4545C76.6632 23.2605 76.5915 23.018 76.5915 22.8058C76.5915 22.4179 76.723 22.1633 77.01 21.9875C77.2611 21.8359 77.7693 21.6541 78.7797 21.6541C80.7048 21.6541 80.9499 22.4603 80.9499 23.1695V23.509H83.1739V23.1695C83.1739 21.5935 82.4206 19.7143 78.8155 19.7143C78.1519 19.7143 77.5481 19.7689 77.0279 19.878C76.4899 19.9871 76.0355 20.1508 75.6289 20.3811C74.8218 20.9206 74.4153 21.745 74.4153 22.8301C74.4153 23.9515 74.8995 24.7759 75.8203 25.2184C76.0654 25.3336 76.6214 25.5215 78.5345 25.8064C80.2982 26.0671 80.6151 26.1459 80.6689 26.1641C81.0874 26.3338 81.2668 26.5884 81.2668 27.0188C81.2668 27.334 81.2668 28.1706 79.0068 28.1706C77.7035 28.1706 77.1296 27.916 76.8605 27.6795C76.6154 27.4916 76.4839 27.1946 76.442 26.8006H74.1582C74.218 27.3037 74.3256 27.7462 74.481 28.1039C74.6783 28.5403 74.9414 28.898 75.2702 29.1586C75.6768 29.4981 76.2089 29.7466 76.8426 29.8921C77.4345 30.0255 78.1639 30.0982 79.0068 30.0982C82.7375 30.0982 83.5207 28.3403 83.5207 26.8673C83.5207 25.7398 82.9946 24.8972 82.0141 24.4365Z" fill="#D4C17F"></path> <path d="M52.0908 20.6539C51.9832 20.5448 51.8995 20.4781 51.8338 20.4296C51.0984 19.9386 50.1538 19.6901 49.0238 19.6901C47.3737 19.6901 46.0883 20.1689 45.1975 21.1025C44.3426 21.9693 43.9121 23.218 43.9121 24.8002C43.9121 25.5822 44.0197 26.2853 44.229 26.9036C44.4382 27.5341 44.7611 28.0857 45.1856 28.5464C46.0823 29.4496 47.3438 29.9103 48.9341 29.9103C50.2315 29.9103 51.2897 29.6072 52.0968 29.0071V29.2253C52.0849 31.0317 51.8816 31.3409 51.4511 31.8016C51.0326 32.2441 50.2853 32.4684 49.2331 32.4684C47.9716 32.4684 47.3917 32.2199 47.1286 32.0077C46.8775 31.8077 46.6862 31.3894 46.5726 30.8014L46.4889 30.3468L44.3067 30.371L44.3187 30.9893C44.3485 31.2257 44.3904 31.4561 44.4442 31.6743C44.6535 32.4805 45.0301 33.1109 45.5742 33.5353C46.3394 34.1475 47.5471 34.4445 49.2689 34.4445C53.454 34.4445 54.3268 31.9168 54.3268 29.7951V19.975H52.0968L52.0908 20.6539ZM50.4587 27.6674C50.1239 27.8068 49.7173 27.8735 49.2689 27.8735C47.1346 27.8735 46.184 26.9279 46.184 24.8002C46.184 23.8182 46.4351 23.0847 46.9552 22.5512C47.4694 22.0239 48.1988 21.7632 49.1793 21.7632C50.1657 21.7632 50.8772 22.0239 51.3614 22.5512C51.8517 23.0968 52.0968 23.8121 52.0968 24.7517C52.0968 25.7701 51.8457 26.552 51.3555 27.0673C51.0924 27.328 50.7935 27.5341 50.4587 27.6674Z" fill="#D4C17F"></path> <path d="M58.3389 20.2599C58.297 20.2902 58.2611 20.3144 58.2313 20.3447V19.981H56.0371L56.0491 29.7951H58.2313V24.9881C58.2313 22.1572 59.5047 21.8299 60.4673 21.8299C60.7243 21.8299 61.938 21.842 61.938 21.842V19.6901H60.6586C59.6542 19.6901 58.9009 19.8719 58.3389 20.2599Z" fill="#D4C17F"></path> <path d="M70.3451 26.8006C69.9207 27.6977 69.1434 28.1221 67.9417 28.1221C66.9194 28.1221 66.1601 27.825 65.634 27.2067C65.2693 26.7885 65.0541 26.2793 64.9823 25.661H72.9697V25.1215C72.9697 23.5151 72.5692 22.2178 71.768 21.2783C71.3196 20.7388 70.7577 20.3326 70.094 20.072C69.4483 19.8174 68.701 19.6901 67.858 19.6901C66.2617 19.6901 64.9943 20.1568 64.0915 21.0782C63.1887 21.9996 62.7344 23.2483 62.7344 24.8002C62.7344 26.3459 63.1708 27.6068 64.0317 28.5282C64.9644 29.5708 66.2857 30.0982 67.9537 30.0982C68.6113 30.0982 69.2331 30.0012 69.8011 29.8133C70.375 29.6254 70.8832 29.3526 71.3316 28.9889C72.0251 28.3888 72.4855 27.6553 72.7246 26.8006H70.3451ZM65.7476 22.3997C66.0166 22.133 66.3215 21.9329 66.6623 21.8056C67.0091 21.6723 67.4096 21.6056 67.858 21.6056C68.719 21.6056 69.3945 21.8784 69.9266 22.4421C70.3272 22.8604 70.5783 23.309 70.6799 23.7939H65.0601C65.2095 23.2059 65.4427 22.7392 65.7476 22.3997Z" fill="#D4C17F"></path> <path d="M42.6685 29.486V28.9525H40.5102V29.4981C40.5102 29.4981 40.5102 29.7951 40.5102 29.8921C40.5042 30.0376 40.4265 30.6013 40.3966 30.7286C40.3308 30.9711 40.2531 31.25 40.2112 31.4015C40.1754 31.4924 40.1395 31.5834 40.0977 31.6682C39.709 32.432 38.8601 32.7897 38.0291 32.6442C36.8094 32.426 35.9246 31.2621 36.092 30.0073C36.1757 29.3769 36.3192 28.7525 36.6062 28.1887C37.1442 27.1219 37.8079 26.1156 38.4715 25.1336C38.603 24.9457 39.0693 24.2425 39.6253 23.1514C40.1933 23.412 40.6895 23.5575 41.0243 23.6363C41.6342 23.7818 42.0048 23.8182 42.2918 23.7454C42.3277 23.7394 42.5967 23.6969 42.6625 23.5878C42.6864 23.5514 42.6206 23.4726 42.5489 23.4545C41.6401 23.212 40.7613 22.9089 40.0737 22.2057C40.6596 20.9024 41.2575 19.2354 41.6043 17.332C41.8554 15.9317 42.1603 14.5375 42.2201 13.0887C42.2918 11.8945 42.244 10.5549 42.0825 9.43344C41.7358 7.05721 40.7134 5.37202 39.1291 3.6444C37.0665 1.3894 34.1729 0.352825 31.1955 0.0618571C28.0388 -0.247296 26.2034 0.643793 24.8044 1.81979C23.1364 3.21401 22.8075 4.5173 22.688 6.37828C22.5923 7.86949 22.8733 8.71815 23.6147 10.2579C24.1527 11.3732 26.3947 13.3009 27.0225 14.3678C27.6203 15.3922 27.4589 15.5195 27.8953 16.6349C28.1106 17.1865 29.2046 18.12 30.215 17.9746C31.2135 17.8351 32.0086 17.1138 32.5527 15.6892C32.7559 15.174 32.7679 14.6769 32.8217 14.2344C32.9771 13.0463 32.9413 12.0764 33.0549 10.6034C33.0668 10.4458 33.0848 10.2457 33.013 10.1609C32.8157 9.91839 32.5527 10.0154 32.4391 10.2457C32.3613 10.3973 32.3434 10.5731 32.2956 10.7367C31.8412 12.2946 30.9026 14.5617 30.8607 14.6951C30.7172 15.0649 30.3705 15.7984 30.1313 15.7741C30.0058 15.7559 29.9101 15.7559 29.8444 15.5195C29.7726 15.2649 29.4498 14.0586 28.3676 12.7008C26.4545 10.2942 25.4023 9.13641 25.0495 7.54821C24.6609 5.80241 25.4441 3.94749 26.9208 3.11096C27.6861 2.6745 29.3003 2.01377 31.0281 2.20168C33.1505 2.43203 35.5061 3.19582 36.9708 4.83252C38.7166 6.77836 39.8346 7.88161 39.8944 11.4217C39.9303 13.5009 39.4819 15.9196 38.9797 17.9321C38.9199 18.1261 38.8541 18.3322 38.7824 18.5444C38.603 19.1021 38.4356 19.5809 38.2742 20.0113C38.2264 19.9447 38.1427 19.8234 38.1187 19.787C37.8497 19.4112 37.6165 19.0596 37.3475 18.7383C37.0247 18.3443 36.7018 17.9321 36.2953 17.6412C35.7931 17.2714 35.249 17.1805 34.8066 17.6775C34.5854 17.9261 34.4359 18.2837 34.5914 18.6838C35.0697 19.8901 35.9844 20.7751 37.0007 21.6056C37.0545 21.648 37.2399 21.7693 37.4491 21.9147C37.0904 22.63 36.6899 23.3211 36.1518 24.2364C35.3925 25.5337 34.5196 27.0612 34.2386 27.7705C33.7006 29.1223 33.6467 30.5165 33.9756 31.9349C34.1191 32.5533 34.424 33.0685 34.8484 33.5353C36.2056 35.0022 38.5193 35.3538 40.277 34.6506C40.6776 34.487 41.0781 34.1839 41.3532 33.8384C42.0825 32.9291 42.5011 31.9168 42.6266 30.8074C42.6386 30.6923 42.6505 30.371 42.6565 30.0922C42.6625 30.0376 42.6625 29.9952 42.6625 29.9649C42.6685 29.8436 42.6685 29.486 42.6685 29.486ZM39.1172 14.1677C39.1172 14.7921 38.615 15.3013 37.9992 15.3013C37.3834 15.3013 36.8871 14.7921 36.8871 14.1677C36.8871 13.5434 37.3834 13.0402 37.9992 13.0402C38.615 13.0402 39.1172 13.5434 39.1172 14.1677Z" fill="#D4C17F"></path> <path d="M93.1645 15.3862L86.0918 15.4104V29.8254L88.4713 29.8012L88.4593 24.1455H92.7998C94.1569 24.1455 95.251 23.7515 96.0462 22.9756C96.8533 22.1936 97.2658 21.1146 97.2658 19.7689C97.2658 18.4292 96.9011 17.3562 96.1837 16.5743C95.4543 15.7862 94.4379 15.3862 93.1645 15.3862ZM94.8684 19.7992C94.8684 21.3267 94.145 22.0057 92.5128 22.0057H88.4713V17.526H92.7579C94.2167 17.526 94.8684 18.2292 94.8684 19.7992Z" fill="#D4C17F"></path> <path d="M110.617 19.6901C108.979 19.6901 107.687 20.2114 106.779 21.2358C105.954 22.1451 105.541 23.3817 105.541 24.9093C105.541 26.4187 105.965 27.6674 106.814 28.6313C107.287 29.1465 107.849 29.5284 108.477 29.7709C109.086 30.0012 109.81 30.1225 110.617 30.1225C112.333 30.1225 113.666 29.6133 114.587 28.607C115.406 27.7099 115.824 26.4611 115.824 24.9093C115.824 23.3393 115.406 22.0905 114.575 21.1934C113.672 20.1992 112.339 19.6901 110.617 19.6901ZM107.741 24.9093C107.741 24.3819 107.813 23.9151 107.944 23.5151C108.076 23.1271 108.261 22.7998 108.5 22.5331C109.009 21.9814 109.702 21.7086 110.617 21.7086C112.668 21.7086 113.624 22.727 113.624 24.9093C113.624 25.4427 113.564 25.9156 113.445 26.3096C113.331 26.6854 113.164 26.9885 112.925 27.2552C112.434 27.8311 111.681 28.1099 110.617 28.1099C109.672 28.1099 108.979 27.8432 108.488 27.2795C107.986 26.6975 107.741 25.9216 107.741 24.9093Z" fill="#D4C17F"></path> <path d="M101.194 20.2599C101.158 20.2902 101.123 20.3144 101.087 20.3447V19.981H98.8926L98.9045 29.7951H101.087V24.9881C101.087 22.1572 102.36 21.8299 103.323 21.8299C103.58 21.8299 104.793 21.842 104.793 21.842V19.6901H103.514C102.51 19.6901 101.756 19.8719 101.194 20.2599Z" fill="#D4C17F"></path> </svg> 